<svg xmlns="http://www.w3.org/2000/svg" viewBox="0 0 53.18 53.04"><defs><style>.cls-1{fill:none;stroke:#fff;stroke-miterlimit:10;stroke-width:2px;}.cls-2{fill:#fff;}</style></defs><title>instagram-icon</title><g id="Layer_2" data-name="Layer 2"><g id="Footer_01_-_Column_04_-_Instagram_Icon" data-name="Footer 01 - Column 04 - Instagram Icon"><ellipse class="cls-1" cx="26.59" cy="26.52" rx="25.59" ry="25.52"/><path class="cls-2" d="M32.95,13H20.23a7.83,7.83,0,0,0-7.84,7.81V33.55a7.83,7.83,0,0,0,7.84,7.81H32.95a7.83,7.83,0,0,0,7.84-7.81V20.86A7.83,7.83,0,0,0,32.95,13Zm5.32,20.5a5.31,5.31,0,0,1-5.32,5.3H20.23a5.31,5.31,0,0,1-5.32-5.3V20.86a5.32,5.32,0,0,1,5.32-5.3H32.95a5.32,5.32,0,0,1,5.32,5.3Zm0,0"/><path class="cls-2" d="M26.59,19.91a7.3,7.3,0,1,0,7.32,7.3,7.31,7.31,0,0,0-7.32-7.3Zm0,12.08a4.78,4.78,0,1,1,4.8-4.78A4.8,4.8,0,0,1,26.59,32Zm0,0"/><path class="cls-2" d="M34.21,17.78a1.84,1.84,0,1,0,1.31.54,1.86,1.86,0,0,0-1.31-.54Zm0,0"/></g></g></svg>