<svg xmlns="http://www.w3.org/2000/svg" viewBox="0 0 53.18 53.04"><defs><style>.cls-1{fill:none;stroke:#fff;stroke-miterlimit:10;stroke-width:2px;}.cls-2{fill:#fff;}</style></defs><title>youtube-icon</title><g id="Layer_2" data-name="Layer 2"><g id="Footer_01_-_Column_04_-_YouTube_Icon" data-name="Footer 01 - Column 04 - YouTube Icon"><ellipse class="cls-1" cx="26.59" cy="26.52" rx="25.59" ry="25.52"/><path class="cls-2" d="M41.11,33.92a40.41,40.41,0,0,0,.64-7.4,40.41,40.41,0,0,0-.64-7.4h0A3.56,3.56,0,0,0,38.6,16.6C36.25,16,26.68,16,26.59,16s-9.67,0-12,.64a3.56,3.56,0,0,0-2.51,2.52,40.48,40.48,0,0,0-.64,7.4,40.47,40.47,0,0,0,.64,7.4,3.56,3.56,0,0,0,2.51,2.52c2.35.63,11.92.64,12,.64s9.67,0,12-.64A3.55,3.55,0,0,0,41.11,33.92ZM23.5,31.44a.27.27,0,0,1-.4-.24V21.83a.27.27,0,0,1,.4-.24l8.26,4.68a.27.27,0,0,1,0,.47Z"/></g></g></svg>